# xmcd
#
# Track frame offsets:
#	150
#	23050
#	42250
#	59202
#	75308
#	93318
#	108297
#	126077
#	140219
#	158287
#	171969
#	187294
#	206248
#	221406
#	236427
#	252753
#
# Disc length: 3638 seconds
#
# Revision: 1
# Processed by: cddbd v1.5.2PL0 Copyright (c) Steve Scherf et al.
# Submitted via: audiograbber 1.83.01
#
DISCID=df0e3410
DTITLE=Various Artist - Erg Nu County Traxx 33
DYEAR=2002
DGENRE=Country
TTITLE0=Alan Jackson - Where Were You (When The World Stopped Turning)
TTITLE1=Pat Green - Carry On
TTITLE2=Carolyn Dawn Johnson - I Don't Want You To Go
TTITLE3=Tommy Shane Steiner - What If She's An Angel
TTITLE4=Kellie Coffey - When You Lie Next To Me
TTITLE5=Toby Keith - My List
TTITLE6=Kenny Chesney - Young
TTITLE7=The Tractors - Fast Girl
TTITLE8=Travis Tritt - Modern Day Bonnie and Clyde
TTITLE9=Jessica Andrews - Karma
TTITLE10=Ty Herndon - Heather's Wall
TTITLE11=Brian McComas - I Could Never Love You Enough
TTITLE12=Trick Pony - Just What I Do
TTITLE13=Alison Krauss and Union Station - Let Me Touch You For A While
TTITLE14=Mindy McCready - Maybe/maybe Not
TTITLE15=SheDaisy - Punishment
EXTD=
EXTT0=
EXTT1=
EXTT2=
EXTT3=
EXTT4=
EXTT5=
EXTT6=
EXTT7=
EXTT8=
EXTT9=
EXTT10=
EXTT11=
EXTT12=
EXTT13=
EXTT14=
EXTT15=
PLAYORDER=
